<?xml version="1.0" standalone="no"?>
<!DOCTYPE svg PUBLIC "-//W3C//DTD SVG 20010904//EN"
 "http://www.w3.org/TR/2001/REC-SVG-20010904/DTD/svg10.dtd">
<svg version="1.0" xmlns="http://www.w3.org/2000/svg"
 width="300.000000pt" height="300.000000pt" viewBox="0 0 300.000000 300.000000"
 preserveAspectRatio="xMidYMid meet">
<metadata>
Created by potrace 1.14, written by Peter Selinger 2001-2017
</metadata>
<g transform="translate(0.000000,300.000000) scale(0.100000,-0.100000)"
fill="#000000" stroke="none">
<path d="M1482 2958 c-6 -24 -13 -55 -16 -69 -5 -21 -13 -28 -43 -34 -22 -4
-50 -20 -71 -41 -19 -19 -37 -34 -41 -34 -4 0 -17 -9 -29 -20 -43 -41 -17
-107 30 -76 14 9 33 13 47 9 21 -5 18 -8 -25 -24 -27 -11 -70 -19 -96 -19 -53
0 -61 -10 -23 -30 23 -12 69 -10 150 6 17 4 27 3 23 -1 -4 -5 -25 -11 -45 -15
l-38 -7 40 -18 c22 -11 42 -20 43 -21 2 -1 -4 -18 -13 -37 -9 -19 -15 -38 -13
-43 2 -5 -7 -19 -19 -31 -13 -13 -20 -29 -17 -37 3 -8 -2 -28 -11 -45 -8 -17
-15 -41 -14 -54 4 -44 -1 -107 -8 -107 -5 1 -30 37 -58 80 -47 75 -73 102 -61
63 43 -137 65 -225 60 -237 -3 -8 4 -28 17 -45 13 -18 19 -36 15 -47 -3 -9 -1
-23 5 -31 9 -11 8 -18 -8 -36 -11 -12 -22 -29 -25 -38 -9 -25 -122 -51 -141
-33 -4 4 22 20 56 36 58 28 61 30 43 44 -11 8 -31 14 -44 14 -24 0 -24 0 9 38
l33 37 -41 3 -41 3 15 29 c28 57 23 72 -49 138 l-67 61 -61 -2 c-66 -1 -63 3
-44 -58 4 -11 -6 -21 -30 -33 -43 -20 -39 -31 14 -47 l39 -12 -20 -26 c-21
-26 -21 -26 -1 -29 13 -2 20 -11 20 -28 0 -24 -3 -25 -34 -19 -32 6 -34 4 -34
-22 0 -16 11 -45 25 -65 45 -66 30 -78 -27 -21 -61 58 -110 78 -173 69 -110
-17 -177 -117 -142 -213 6 -18 5 -23 -7 -23 -20 0 -36 -31 -36 -69 0 -28 1
-30 35 -24 29 5 50 -2 113 -35 120 -62 149 -68 227 -47 36 9 69 15 72 11 12
-11 -20 -36 -60 -47 -36 -9 -51 -8 -118 15 -94 32 -99 32 -99 0 0 -24 -2 -25
-47 -23 -47 3 -48 2 -46 -27 1 -18 13 -38 32 -54 22 -19 27 -29 21 -40 -6 -8
-10 -25 -10 -38 0 -21 3 -23 33 -17 48 11 85 32 103 60 16 24 34 33 34 17 0
-4 -18 -27 -41 -51 -22 -24 -52 -67 -66 -94 -22 -45 -25 -60 -21 -124 4 -62
10 -81 43 -134 26 -43 40 -78 43 -111 4 -46 3 -50 -37 -88 -38 -36 -39 -40
-24 -55 10 -11 27 -15 45 -13 39 6 35 -7 -12 -38 -46 -31 -42 -43 17 -51 44
-6 95 15 115 47 9 14 16 16 31 9 10 -6 25 -8 33 -5 21 8 17 75 -6 116 -17 28
-9 22 39 -27 86 -89 103 -165 44 -192 l-26 -12 5 49 c5 48 4 48 -23 44 -40 -6
-73 -45 -73 -88 0 -31 -3 -35 -20 -29 -96 28 -181 46 -241 52 l-70 6 65 -61
65 -60 -30 -7 c-16 -5 -47 -17 -69 -27 l-39 -20 102 -48 c56 -27 104 -56 107
-65 4 -8 0 -36 -9 -60 l-14 -46 44 -38 c24 -22 78 -57 121 -79 290 -149 672
-182 1008 -86 111 31 297 121 346 167 l37 34 -15 49 c-8 27 -12 54 -10 61 3 6
50 34 106 61 98 49 100 50 77 65 -13 8 -43 21 -67 27 l-42 11 28 31 c16 17 47
43 68 59 l39 29 -42 0 c-50 0 -176 -25 -248 -49 l-52 -17 6 26 c8 43 -21 87
-64 99 -20 6 -38 9 -40 7 -2 -2 1 -15 6 -30 6 -14 7 -35 3 -46 l-8 -21 -26 21
c-23 17 -26 26 -21 58 6 44 38 93 94 147 l41 40 -21 -40 c-22 -42 -27 -81 -12
-104 8 -12 15 -13 35 -4 21 10 26 9 40 -12 19 -29 77 -49 121 -41 49 10 50 20
5 50 -47 31 -51 44 -12 39 15 -3 36 3 47 11 20 16 20 16 -8 37 -61 46 -72 126
-26 190 62 87 78 198 42 279 -11 25 -41 69 -68 98 -26 29 -44 56 -40 60 4 4
17 -5 28 -19 31 -37 66 -57 107 -61 32 -3 35 -1 32 22 -2 14 -8 29 -13 34 -5
6 3 20 21 35 17 14 33 40 36 57 l6 31 -52 -5 c-49 -4 -52 -4 -46 16 11 34 -11
35 -98 7 -72 -23 -88 -25 -123 -16 -40 11 -72 36 -60 48 4 3 34 -2 68 -11 78
-22 108 -17 223 41 70 35 97 44 123 40 32 -6 33 -5 33 29 0 24 -8 42 -24 57
-18 17 -22 27 -15 38 16 26 10 85 -14 120 -47 70 -138 104 -213 79 -21 -7 -62
-35 -91 -63 -58 -54 -71 -45 -28 19 14 20 25 50 25 66 0 27 -2 29 -32 23 -30
-6 -33 -4 -33 19 0 18 5 26 18 26 23 0 22 13 -3 35 -21 19 -21 19 21 34 45 17
64 41 31 41 -28 0 -51 31 -42 55 16 37 11 41 -53 40 -63 0 -65 -1 -125 -55
-66 -60 -75 -86 -47 -140 l15 -29 -40 -3 -41 -3 31 -37 c28 -34 29 -38 12 -38
-69 0 -67 -30 3 -62 57 -26 61 -38 14 -38 -51 0 -104 28 -118 63 -21 49 -16
115 9 139 15 14 18 23 11 32 -7 8 1 48 25 130 20 65 33 120 30 123 -3 3 -27
-29 -53 -70 -49 -78 -63 -90 -63 -59 -1 9 -7 34 -14 54 -9 25 -10 38 -3 41 7
2 6 15 -3 38 -8 19 -13 44 -12 56 2 11 -2 24 -7 28 -7 4 -8 13 -2 23 5 9 8 71
7 137 -2 95 -6 125 -19 146 -17 25 -16 28 3 70 19 43 28 149 12 149 -4 0 -29
-22 -57 -49 l-50 -49 -29 59 c-16 33 -32 59 -36 59 -4 0 -12 -19 -18 -42z
m-31 -178 c9 13 10 13 6 0 -2 -8 -10 -15 -17 -15 -7 0 -15 7 -17 15 -4 13 -3
13 6 0 10 -13 12 -13 22 0z m-101 -35 c6 -16 17 -25 31 -25 21 0 79 -50 79
-69 0 -6 -12 2 -27 19 -38 42 -107 59 -135 33 -19 -17 -20 -17 -16 12 2 19 12
34 28 42 32 16 29 17 40 -12z m95 -27 c6 -6 -9 -1 -32 11 -23 11 -45 25 -48
31 -7 12 64 -26 80 -42z m-1 -108 c-6 -6 -28 -13 -50 -15 l-39 -5 35 14 c43
18 68 20 54 6z m175 -89 c14 -4 26 -12 29 -19 3 -10 -3 -11 -25 -5 -37 11
-169 10 -212 -1 -26 -6 -32 -5 -29 5 7 20 43 27 133 27 44 0 91 -3 104 -7z
m16 -78 c16 -10 1 -11 -75 -7 -52 3 -121 2 -152 -4 -62 -10 -79 1 -25 17 42
13 227 8 252 -6z m-125 -104 c0 -5 -4 -9 -10 -9 -5 0 -10 7 -10 16 0 8 5 12
10 9 6 -3 10 -10 10 -16z m-160 -29 c6 -11 8 -20 6 -20 -3 0 -10 9 -16 20 -6
11 -8 20 -6 20 3 0 10 -9 16 -20z m167 -12 c-3 -8 -6 -5 -6 6 -1 11 2 17 5 13
3 -3 4 -12 1 -19z m105 -56 c-20 -39 -40 -72 -44 -72 -3 0 12 34 35 75 22 41
42 74 43 72 2 -2 -13 -35 -34 -75z m-322 -89 c0 -4 -20 22 -45 59 -25 37 -45
71 -45 75 0 4 20 -22 45 -59 25 -37 45 -71 45 -75z m37 75 c-2 -13 -4 -3 -4
22 0 25 2 35 4 23 2 -13 2 -33 0 -45z m140 40 c-3 -8 -6 -5 -6 6 -1 11 2 17 5
13 3 -3 4 -12 1 -19z m190 -75 c-2 -21 -4 -6 -4 32 0 39 2 55 4 38 2 -18 2
-50 0 -70z m79 20 c-25 -37 -46 -65 -46 -61 0 12 82 139 87 134 3 -2 -16 -35
-41 -73z m-350 16 c14 -28 24 -53 22 -55 -2 -2 -16 21 -31 51 -15 30 -25 55
-22 55 3 0 16 -23 31 -51z m131 29 c-3 -8 -6 -5 -6 6 -1 11 2 17 5 13 3 -3 4
-12 1 -19z m-12 -48 c6 -32 4 -35 -18 -36 -23 -2 -23 0 -14 42 12 49 22 47 32
-6z m-48 18 c-3 -8 -6 -5 -6 6 -1 11 2 17 5 13 3 -3 4 -12 1 -19z m82 -38 c0
-9 -4 -8 -9 5 -5 11 -9 27 -9 35 0 9 4 8 9 -5 5 -11 9 -27 9 -35z m-439 -20
c20 -17 21 -19 4 -11 -11 5 -27 18 -35 27 -13 15 -14 15 -20 -7 -6 -19 -7 -16
-8 15 -1 38 -1 38 17 18 9 -12 28 -31 42 -42z m280 8 c0 -5 -8 -8 -18 -8 -15
0 -18 6 -14 31 l5 32 13 -24 c7 -13 13 -27 14 -31z m250 22 c0 -20 -5 -30 -15
-30 -18 0 -18 2 -3 35 15 32 18 32 18 -5z m293 0 c-9 -17 -25 -33 -35 -36 -10
-3 -19 -13 -19 -22 -1 -16 -2 -16 -6 0 -2 10 10 30 34 52 21 20 39 36 41 36 2
0 -5 -14 -15 -30z m-481 -22 c-8 -8 -9 -4 -5 13 4 13 8 18 11 10 2 -7 -1 -18
-6 -23z m301 -10 c-3 -16 -9 -28 -14 -28 -12 0 -11 4 3 35 14 31 18 29 11 -7z
m-483 -20 c0 -4 -4 -8 -10 -8 -5 0 -10 4 -10 9 0 5 -3 18 -6 28 -5 16 -4 16
10 -1 9 -11 16 -23 16 -28z m732 -108 c4 0 8 10 8 23 0 24 17 47 33 47 6 0 8
-28 4 -66 -4 -60 -3 -64 12 -51 9 8 26 18 39 21 32 10 29 -18 -7 -72 -25 -37
-30 -40 -36 -23 -3 10 -13 25 -22 33 -15 11 -16 11 -10 -5 4 -10 3 -16 -2 -12
-5 3 -17 2 -25 -1 -15 -6 -15 -9 -1 -30 22 -33 19 -40 -6 -13 -21 24 -21 20
-2 -28 4 -12 0 -11 -13 5 -10 12 -50 38 -89 58 l-70 34 50 -4 c28 -2 58 -7 69
-11 35 -15 13 12 -38 47 -56 37 -70 59 -34 51 43 -9 49 -13 43 -23 -5 -8 -12
-7 -23 2 -15 12 -16 11 -3 -5 10 -13 17 -15 27 -6 7 6 18 8 24 4 18 -11 11 8
-12 33 -13 14 -16 21 -8 16 8 -4 23 -10 33 -11 16 -3 16 0 -3 37 -11 21 -20
45 -19 52 0 7 7 -4 16 -24 8 -21 19 -38 23 -38 4 0 2 17 -6 38 -7 20 -13 46
-13 57 0 11 12 -15 26 -57 15 -43 30 -78 35 -78z m-925 98 c-3 -7 -5 -2 -5 12
0 14 2 19 5 13 2 -7 2 -19 0 -25z m-36 -27 c-13 -24 -14 -31 -2 -31 5 0 13 9
16 21 4 11 9 18 12 15 3 -3 -2 -17 -11 -32 -21 -31 -13 -46 10 -18 8 10 13 13
9 7 -3 -7 0 -13 7 -13 7 0 2 -9 -12 -20 -14 -10 -22 -22 -18 -26 4 -4 14 -1
22 6 9 6 31 15 50 20 32 7 34 6 23 -11 -7 -11 -15 -19 -20 -19 -4 0 -5 5 -1
12 4 7 3 8 -5 4 -6 -4 -9 -11 -6 -16 3 -5 -14 -21 -37 -36 -41 -26 -40 -47 1
-25 11 6 39 11 63 10 l43 -1 -72 -33 c-80 -38 -108 -69 -101 -115 3 -16 3 -30
1 -30 -13 0 -43 22 -43 32 0 7 5 6 15 -2 13 -10 15 -9 15 11 0 13 7 37 15 53
18 34 11 48 -11 20 -15 -18 -15 -18 -5 3 17 34 12 40 -10 13 -19 -23 -19 -23
-9 -2 6 13 7 28 2 38 -8 14 -10 14 -22 0 -10 -13 -16 -14 -29 -4 -14 12 -14
11 -2 -5 8 -9 12 -20 9 -23 -10 -9 -59 67 -56 86 3 20 3 20 41 1 38 -19 45
-14 26 21 -13 25 -3 91 14 85 7 -2 17 -19 23 -37 l11 -34 22 48 c11 27 21 54
22 60 0 7 2 7 5 -1 3 -7 1 -21 -5 -32z m425 30 c-3 -4 -36 -11 -74 -14 -38 -3
-86 -12 -105 -21 -22 -9 -39 -11 -42 -5 -12 18 92 46 178 48 27 1 46 -3 43 -8z
m239 -13 c21 -7 40 -19 43 -25 2 -9 -7 -8 -33 3 -20 8 -67 18 -103 21 -37 3
-74 10 -82 15 -22 14 128 1 175 -14z m-215 -106 l0 -109 -41 -19 c-23 -10 -69
-37 -103 -61 -69 -48 -67 -49 -84 46 l-9 50 61 59 c56 54 162 142 172 142 2 0
4 -49 4 -108z m95 55 c28 -23 74 -63 103 -91 57 -55 60 -68 39 -149 l-12 -47
-48 34 c-26 18 -72 47 -102 62 l-55 29 0 108 c0 121 -5 117 75 54z m-181 15
c-12 -9 -42 -34 -66 -54 -48 -41 -64 -47 -54 -23 3 8 1 27 -4 41 -8 19 -7 25
2 22 6 -2 13 -15 15 -28 2 -13 5 -25 6 -27 6 -5 82 70 80 78 -2 5 7 9 20 9
l22 0 -21 -18z m243 -29 c46 -47 48 -47 51 -23 6 44 21 45 19 2 -1 -23 -4 -42
-7 -42 -4 0 -31 21 -61 46 -73 62 -75 64 -61 64 6 0 33 -21 59 -47z m-546 14
c-10 -9 -11 -8 -5 6 3 10 9 15 12 12 3 -3 0 -11 -7 -18z m246 17 c-3 -3 -12
-4 -19 -1 -8 3 -5 6 6 6 11 1 17 -2 13 -5z m330 0 c-3 -3 -12 -4 -19 -1 -8 3
-5 6 6 6 11 1 17 -2 13 -5z m-709 -179 c-6 -14 -13 -23 -15 -21 -5 5 15 46 22
46 3 0 -1 -11 -7 -25z m-397 -23 c-15 -29 -14 -58 5 -93 20 -39 28 -31 16 15
-6 21 -7 48 -2 63 7 25 8 22 9 -19 1 -67 21 -72 23 -6 1 43 2 46 5 16 6 -57
16 -51 51 32 6 14 11 19 11 12 1 -7 -5 -28 -13 -47 -13 -30 -13 -38 1 -67 34
-70 73 -97 165 -112 20 -4 39 -14 42 -22 5 -12 14 -15 37 -10 18 3 28 2 24 -4
-8 -13 7 -13 42 1 28 10 28 10 8 -9 -11 -11 -24 -17 -29 -14 -5 3 -6 0 -2 -7
5 -8 15 -6 34 7 51 36 57 35 17 -2 -43 -40 -32 -39 25 3 23 17 17 9 -17 -25
-29 -27 -53 -57 -53 -65 1 -8 14 1 33 22 18 19 41 41 52 49 11 8 3 -4 -17 -25
-36 -38 -74 -112 -64 -122 2 -3 14 14 26 37 24 47 60 84 103 106 40 21 33 11
-15 -22 -81 -56 -121 -162 -87 -226 14 -27 17 -99 4 -94 -5 2 -10 10 -9 17 1
8 -7 15 -17 15 -10 0 -16 -3 -15 -6 29 -60 34 -80 28 -103 -7 -26 -8 -27 -30
-12 -17 13 -22 26 -22 63 -1 43 -2 46 -15 27 -38 -53 -55 -60 -47 -17 6 32 21
54 32 47 5 -3 12 0 16 6 4 8 3 9 -4 5 -15 -9 -15 -1 -2 24 7 13 6 21 -5 30
-11 9 -23 3 -59 -31 -25 -23 -46 -38 -46 -34 0 16 -38 -27 -50 -56 -7 -16 -15
-27 -18 -25 -2 3 10 30 27 61 31 54 29 76 -3 33 -16 -23 -16 -23 -6 -1 5 12
15 25 20 28 6 3 10 12 10 18 -1 7 -15 -4 -32 -23 -26 -29 -29 -30 -14 -7 10
16 15 31 13 33 -6 7 -44 -47 -62 -88 -8 -18 -14 -27 -15 -20 0 23 30 72 80
128 55 60 57 66 35 84 -13 11 -22 7 -54 -24 -20 -20 -52 -40 -70 -46 -30 -8
-32 -7 -29 13 2 13 18 30 41 42 20 12 34 25 30 28 -3 4 19 7 49 7 41 0 57 4
62 15 5 14 -27 35 -55 35 -19 0 -8 -19 14 -23 15 -3 12 -5 -12 -6 -24 -1 -32
3 -28 13 4 9 0 12 -13 9 -11 -3 -24 4 -34 18 -8 13 -14 24 -13 25 2 2 39 -8
82 -22 80 -25 104 -25 169 2 15 6 17 4 11 -7 -5 -8 -4 -11 0 -6 5 4 10 13 11
20 1 7 5 19 8 28 4 9 0 21 -9 29 -12 10 -26 10 -76 -5 -77 -21 -113 -15 -209
37 -41 22 -94 43 -117 47 -41 6 -42 7 -30 30 7 14 18 26 26 29 8 3 11 0 7 -7
-5 -7 1 -11 16 -11 24 0 52 -13 100 -44 26 -17 27 -17 25 3 0 11 -5 17 -9 15
-4 -3 -25 7 -45 21 -21 14 -42 25 -48 25 -17 0 -45 55 -45 89 0 30 19 85 27
77 3 -2 0 -13 -6 -24z m1477 3 c-3 -3 -9 2 -12 12 -6 14 -5 15 5 6 7 -7 10
-15 7 -18z m295 -35 c3 10 6 6 6 -9 1 -30 17 -17 25 19 2 14 3 4 2 -22 -2 -27
0 -48 5 -48 14 0 22 48 16 88 -5 25 -3 32 3 22 13 -20 13 -96 0 -121 -7 -12
-7 -19 -1 -19 26 0 43 79 28 130 -5 19 -4 18 8 -5 18 -39 19 -69 0 -105 -16
-31 -69 -65 -86 -55 -5 4 -8 1 -7 -6 2 -6 -3 -14 -11 -17 -9 -3 -11 0 -6 9 6
11 5 12 -5 2 -8 -7 -15 -22 -17 -33 -3 -20 -1 -19 35 5 20 14 54 28 74 31 21
4 35 10 32 15 -8 13 10 11 24 -3 23 -23 14 -48 -17 -48 -16 0 -67 -20 -113
-44 -104 -54 -143 -62 -213 -42 -29 9 -65 17 -80 18 -14 1 -33 11 -42 21 -16
17 -16 18 11 8 35 -14 56 -14 36 -1 -11 7 -4 9 25 7 33 -2 40 1 39 15 -1 10 1
16 5 14 3 -2 30 0 59 5 65 10 109 41 139 98 20 37 21 43 8 68 -8 16 -14 37
-14 48 1 11 7 2 13 -20 8 -26 15 -34 19 -25z m4 28 c-3 -8 -6 -5 -6 6 -1 11 2
17 5 13 3 -3 4 -12 1 -19z m-215 -38 c12 0 18 -7 18 -21 0 -31 17 -57 50 -74
16 -8 31 -15 33 -15 3 0 7 18 11 39 7 47 14 53 43 37 22 -11 22 -12 4 -42 -27
-44 -80 -66 -161 -66 -49 0 -79 6 -109 22 l-43 21 48 32 c26 17 52 44 58 59 7
18 14 24 20 18 6 -6 18 -10 28 -10z m-1222 1 c0 -12 50 -61 84 -82 l29 -17
-44 -23 c-33 -16 -61 -22 -109 -22 -76 1 -111 13 -145 49 -30 33 -31 50 -5 64
18 10 22 7 34 -21 8 -18 12 -39 9 -46 -8 -19 10 -16 48 10 25 16 35 31 37 54
3 31 6 33 55 42 4 0 7 -3 7 -8z m34 -7 c3 -8 2 -12 -4 -9 -6 3 -10 10 -10 16
0 14 7 11 14 -7z m1118 -6 c-7 -7 -12 -8 -12 -2 0 6 3 14 7 17 3 4 9 5 12 2 2
-3 -1 -11 -7 -17z m-47 -38 c-20 -22 -39 -27 -32 -7 2 6 10 11 16 10 6 -2 11
2 11 7 0 6 5 10 12 10 6 0 3 -9 -7 -20z m-382 -83 c-14 -23 -27 -33 -48 -34
l-30 -2 31 9 c30 9 53 42 55 78 1 15 2 15 6 -1 2 -9 -4 -32 -14 -50z m-260 5
c6 -12 24 -26 41 -31 31 -9 31 -9 4 -10 -31 -1 -68 40 -67 73 0 14 2 16 6 6 2
-8 9 -25 16 -38z m-323 30 c0 -4 -10 -13 -22 -21 -23 -14 -23 -14 -4 8 20 22
26 25 26 13z m647 -14 c-3 -8 -6 -5 -6 6 -1 11 2 17 5 13 3 -3 4 -12 1 -19z
m279 1 c19 -22 19 -22 -3 -10 -24 12 -39 31 -25 31 5 0 17 -10 28 -21z m-669
-11 c-3 -8 -6 -5 -6 6 -1 11 2 17 5 13 3 -3 4 -12 1 -19z m43 -33 c0 -17 -2
-17 -10 -5 -5 8 -10 24 -10 35 0 17 2 17 10 5 5 -8 10 -24 10 -35z m316 9 c-5
-18 -10 -24 -17 -17 -7 7 -7 17 2 31 7 12 15 19 17 17 3 -2 1 -16 -2 -31z
m-276 -114 c16 -11 44 -27 62 -35 18 -8 27 -14 20 -15 -19 0 -73 29 -100 54
-25 22 -62 87 -62 108 0 6 12 -11 26 -40 14 -29 39 -61 54 -72z m290 84 c-18
-47 -58 -93 -100 -114 -22 -11 -44 -20 -51 -20 -6 0 13 12 42 28 43 22 58 38
83 84 33 60 44 69 26 22z m-167 19 c-7 -2 -19 -2 -25 0 -7 3 -2 5 12 5 14 0
19 -2 13 -5z m-114 -35 c0 -7 -4 -22 -8 -32 -10 -25 -22 -6 -14 22 6 23 23 31
22 10z m41 -7 c-5 -11 -10 -32 -11 -48 0 -26 -1 -26 -10 -8 -11 23 3 75 21 75
7 0 8 -6 0 -19z m95 -15 c11 -57 4 -71 -35 -71 -31 0 -35 3 -38 29 -6 53 5 76
38 76 25 0 30 -5 35 -34z m45 -22 c0 -19 -4 -34 -9 -34 -4 0 -6 11 -4 24 3 13
-1 34 -8 47 -11 22 -11 23 4 10 10 -8 17 -28 17 -47z m39 18 c0 -24 -1 -25 -9
-7 -12 28 -12 47 0 40 6 -3 10 -18 9 -33z m-309 -27 c-7 -8 -17 -15 -23 -15
-5 0 -2 10 9 23 l19 22 -22 -19 c-12 -10 -21 -23 -20 -28 1 -6 -3 -12 -10 -15
-18 -7 -10 21 17 54 23 28 26 29 34 12 6 -12 5 -24 -4 -34z m450 -15 c4 0 11
9 16 20 9 20 11 19 48 -19 30 -31 34 -39 18 -34 -12 3 -27 11 -33 19 -13 15
-39 19 -39 5 0 -4 -10 -8 -22 -7 -13 1 -22 7 -21 13 1 6 -8 19 -20 29 l-22 19
19 -22 c22 -26 11 -31 -15 -7 -14 13 -15 20 -7 34 10 16 14 14 41 -16 16 -19
32 -34 37 -34z m225 20 c3 -6 11 -10 17 -10 6 0 3 10 -8 21 l-19 22 25 -14
c14 -7 27 -13 30 -12 3 1 6 -10 5 -24 0 -37 53 -67 117 -67 32 0 43 -3 33 -8
-8 -5 -15 -16 -15 -23 0 -11 14 -15 55 -15 30 0 55 -4 55 -9 0 -5 14 -14 30
-21 29 -12 50 -37 50 -59 0 -20 -64 9 -101 45 -32 31 -41 35 -54 24 -23 -19
-19 -32 26 -75 22 -22 47 -52 55 -67 20 -39 10 -35 -16 6 -13 22 -28 34 -40
33 -11 -1 -20 -2 -20 -4 0 -1 14 -24 30 -50 17 -26 30 -52 30 -57 -1 -6 -9 5
-20 25 -18 34 -50 69 -50 55 0 -4 11 -24 25 -44 14 -20 25 -41 25 -47 0 -5 -9
4 -19 21 -35 57 -41 46 -11 -18 17 -35 30 -72 29 -83 0 -11 -6 -1 -14 22 -19
61 -59 125 -101 162 -33 29 -38 31 -52 17 -14 -14 -13 -19 11 -54 31 -43 37
-85 11 -75 -8 3 -20 16 -25 29 -14 38 -25 28 -25 -22 1 -37 -3 -49 -21 -61
-21 -14 -23 -13 -29 12 -5 19 0 41 15 72 21 44 16 47 -23 14 -18 -15 -18 -14
-13 24 3 22 11 58 18 80 24 78 -10 148 -105 217 -42 30 -41 37 2 14 35 -19 85
-72 107 -114 9 -19 19 -31 22 -28 12 11 -41 98 -80 132 -23 20 -33 32 -21 26
11 -6 38 -30 58 -52 21 -23 40 -39 43 -36 3 3 0 12 -6 20 -7 8 -9 21 -5 27 4
7 3 10 -2 7 -5 -3 -25 8 -44 24 -19 17 -25 25 -13 19 12 -6 25 -16 28 -21z
m-744 -20 c17 0 1 -30 -34 -62 -20 -20 -37 -33 -37 -31 0 10 24 50 42 69 19
21 19 21 -1 27 -12 3 -19 1 -16 -4 5 -7 -44 -39 -59 -39 -3 0 14 18 37 40 39
36 43 38 51 20 5 -11 12 -20 17 -20z m99 11 c0 -5 -14 -22 -32 -38 -17 -15
-49 -45 -71 -65 -43 -42 -85 -55 -51 -17 16 19 144 127 152 128 1 1 2 -3 2 -8z
m380 -40 c19 -13 52 -41 72 -60 43 -40 66 -34 49 12 -10 25 -9 25 25 20 40 -7
42 1 12 36 l-23 25 35 -20 c53 -30 100 -106 98 -158 l-1 -41 -4 43 -4 42 -95
0 c-55 0 -94 4 -94 10 0 5 -29 33 -65 61 -36 28 -65 55 -65 61 0 10 9 6 60
-31z m-598 6 c-31 -32 -27 -41 13 -34 32 5 34 4 24 -14 -5 -11 -7 -29 -4 -39
6 -19 1 -20 -64 -20 l-71 0 -1 -47 c-2 -33 -3 -39 -6 -19 -9 57 7 97 57 147
48 48 94 71 52 26z m175 -53 c-32 -30 -63 -54 -70 -53 -7 0 6 14 28 32 21 18
51 43 65 57 14 14 27 24 30 22 3 -2 -21 -28 -53 -58z m458 -28 c17 -14 24 -26
18 -26 -7 0 -41 27 -75 61 -61 59 -45 49 57 -35z m-398 42 c-14 -23 -30 -44
-37 -46 -7 -3 2 16 20 42 42 57 50 60 17 4z m302 -5 c18 -24 28 -43 23 -43 -9
0 -62 73 -62 86 0 4 1 5 3 3 2 -2 18 -23 36 -46z m152 11 c12 -19 20 -36 18
-38 -2 -2 -21 13 -41 33 -32 31 -35 37 -18 38 12 1 27 -11 41 -33z m499 21 c0
-17 -36 -39 -50 -30 -6 3 -7 -1 -4 -9 5 -13 -1 -16 -27 -15 -24 1 -27 3 -11 6
26 5 30 23 5 24 -10 0 2 9 27 19 55 23 60 24 60 5z m-923 -48 c-13 -31 -37
-58 -37 -42 0 10 44 84 48 80 2 -1 -3 -19 -11 -38z m263 -43 c0 -16 -19 2 -33
31 -26 54 -20 66 8 16 14 -23 25 -45 25 -47z m-230 35 c-12 -39 -27 -66 -34
-58 -3 2 5 25 17 51 25 54 31 57 17 7z m178 -11 c12 -27 17 -48 11 -48 -10 0
-24 31 -35 78 -9 37 -1 26 24 -30z m-147 -7 c-9 -41 -18 -59 -24 -50 -5 6 24
101 29 96 3 -2 0 -23 -5 -46z m112 -3 c9 -27 12 -48 7 -48 -9 0 -30 62 -30 89
0 21 5 11 23 -41z m-876 31 c26 -10 27 -12 8 -19 -11 -5 -15 -9 -10 -9 16 -2
-18 -21 -37 -21 -19 0 -58 34 -58 50 0 13 62 13 97 -1z m799 -76 c-13 -34 -22
0 -12 44 l11 48 3 -39 c2 -21 1 -45 -2 -53z m43 10 c0 -13 -3 -23 -9 -23 -6 0
-9 23 -9 53 1 44 2 48 9 22 4 -16 8 -40 9 -52z m870 55 c-15 -28 -28 -38 -54
-38 -17 0 -55 31 -55 44 0 7 33 14 78 15 41 1 42 0 31 -21z m-1124 -68 c4 -6
-33 -10 -104 -10 l-111 0 0 -175 0 -175 440 0 440 0 0 175 0 175 -112 0 c-77
0 -109 3 -102 10 7 7 54 10 120 8 l109 -3 3 -340 c2 -216 -1 -364 -8 -405 -31
-178 -167 -330 -389 -435 l-63 -29 -104 52 c-189 97 -315 243 -344 401 -15 83
-13 748 3 754 23 10 216 7 222 -3z m100 0 c3 -5 -3 -10 -14 -10 -12 0 -21 5
-21 10 0 6 6 10 14 10 8 0 18 -4 21 -10z m280 0 c-3 -5 -13 -10 -21 -10 -8 0
-12 5 -9 10 3 6 13 10 21 10 8 0 12 -4 9 -10z m-169 -94 c-46 -14 -69 -42 -47
-55 7 -5 23 -7 35 -5 20 4 20 4 1 -5 -16 -8 -11 -10 25 -9 38 0 41 1 20 8 -23
8 -22 9 9 7 20 -1 36 3 38 11 3 8 -2 10 -14 6 -15 -5 -16 -4 -3 5 13 10 13 13
-4 26 -23 17 -14 20 15 5 45 -24 5 -80 -58 -80 -88 0 -118 73 -38 93 42 10 58
4 21 -7z m669 -43 c38 -49 79 -148 71 -170 -7 -18 -31 -17 -47 3 -10 12 -10
20 -1 35 17 27 16 29 -25 29 -40 0 -73 -23 -73 -52 0 -11 -7 -18 -20 -18 -43
0 -94 -80 -52 -80 9 -1 27 -6 39 -13 21 -12 20 -13 -23 -50 l-44 -38 1 123 c1
68 4 113 6 101 2 -13 8 -23 13 -23 24 0 61 26 72 51 10 22 16 26 29 18 10 -5
24 -9 32 -9 20 0 6 73 -22 111 -25 34 -26 40 -5 32 8 -3 30 -26 49 -50z m116
2 l10 -20 -16 20 c-9 11 -21 29 -26 40 l-10 20 16 -20 c9 -11 21 -29 26 -40z
m-1385 14 c-14 -17 -26 -41 -26 -54 0 -13 -3 -31 -7 -41 -7 -18 5 -17 50 1 12
5 17 3 17 -8 0 -23 32 -55 62 -62 23 -6 27 -3 31 22 2 15 5 -30 6 -101 l1
-130 -27 26 c-16 14 -38 32 -51 40 l-23 16 43 14 c33 12 42 20 40 34 -4 24
-39 54 -63 54 -10 0 -19 7 -19 15 0 27 -38 55 -75 55 -38 0 -40 -2 -24 -31 13
-25 -4 -49 -34 -49 -17 0 -19 5 -14 33 11 72 90 197 124 197 11 0 8 -8 -11
-31z m621 -15 c-3 -3 -12 -4 -19 -1 -8 3 -5 6 6 6 11 1 17 -2 13 -5z m-721
-60 c-14 -27 -26 -45 -26 -40 0 14 42 98 46 93 3 -2 -7 -26 -20 -53z m1533 6
c0 -10 -3 -8 -9 5 -12 27 -12 43 0 25 5 -8 9 -22 9 -30z m-1302 -32 c-3 -7 -5
-2 -5 12 0 14 2 19 5 13 2 -7 2 -19 0 -25z m-340 0 c-3 -8 -6 -5 -6 6 -1 11 2
17 5 13 3 -3 4 -12 1 -19z m40 -20 c-3 -8 -6 -5 -6 6 -1 11 2 17 5 13 3 -3 4
-12 1 -19z m1570 -10 c-3 -8 -6 -5 -6 6 -1 11 2 17 5 13 3 -3 4 -12 1 -19z
m-737 2 c17 -11 14 -12 -63 -14 -48 -1 -55 1 -40 12 20 14 82 16 103 2z m-849
-29 c6 9 7 2 2 -20 -4 -25 -3 -32 5 -27 8 4 12 0 12 -11 0 -15 2 -16 10 -3 7
11 10 4 10 -27 0 -24 -2 -43 -5 -43 -13 0 -55 107 -54 135 2 26 2 27 6 6 4
-19 7 -21 14 -10z m56 7 c-3 -8 -6 -5 -6 6 -1 11 2 17 5 13 3 -3 4 -12 1 -19z
m1553 -42 c-6 -24 -20 -56 -31 -72 l-19 -29 0 38 c0 23 4 36 10 32 6 -3 10 1
10 9 0 9 4 16 9 16 5 0 7 10 3 22 -3 14 -2 19 6 14 8 -5 12 1 13 16 0 13 3 17
6 10 3 -8 0 -33 -7 -56z m-781 18 c2 -2 13 1 25 7 19 9 19 8 -3 -10 -13 -12
-34 -21 -47 -21 -27 0 -74 20 -74 31 0 8 89 1 99 -7z m-782 -16 c-3 -8 -6 -5
-6 6 -1 11 2 17 5 13 3 -3 4 -12 1 -19z m1510 -10 c-3 -8 -6 -5 -6 6 -1 11 2
17 5 13 3 -3 4 -12 1 -19z m-1310 -429 c-3 -12 -2 -32 3 -45 11 -28 7 -30 -14
-8 -15 14 -16 13 -17 -8 -1 -17 -3 -13 -10 12 -7 29 -5 38 12 53 27 22 33 22
26 -4z m1133 1 c21 -21 27 -42 10 -37 -5 1 -27 -17 -48 -40 -22 -24 -46 -43
-53 -43 -8 1 -3 7 11 15 34 18 54 56 48 94 -5 36 4 39 32 11z m-1340 -81 c14
-4 18 -8 10 -8 -13 -1 -13 -2 0 -11 13 -8 12 -10 -3 -10 -14 0 -16 -4 -8 -17
5 -10 10 -22 11 -28 1 -5 11 -16 23 -23 21 -13 17 -12 -30 4 -12 4 -10 -1 7
-16 l25 -22 -33 19 c-24 13 -32 23 -28 36 2 11 2 16 -1 13 -8 -7 -43 23 -43
37 0 5 7 4 15 -3 24 -20 18 -5 -7 16 -13 12 -18 13 -13 4 5 -9 -1 -8 -16 5
-13 11 -26 21 -29 23 -8 6 91 -10 120 -19z m1614 -1 c-16 -13 -32 -22 -35 -21
-4 1 -13 -5 -21 -15 -12 -15 -11 -16 5 -3 21 16 23 -1 2 -19 -8 -7 -15 -18
-15 -25 0 -7 -7 -16 -16 -19 -8 -3 -12 -2 -9 4 3 6 2 10 -4 10 -5 0 -7 14 -5
30 6 33 0 35 -42 20 -15 -6 -29 -8 -31 -6 -3 3 14 10 36 17 25 7 37 15 30 20
-7 4 12 11 42 17 90 16 96 15 63 -10z m-1394 -23 c14 -19 14 -19 -2 -6 -10 7
-18 18 -18 24 0 6 1 8 3 6 1 -2 9 -13 17 -24z m59 -12 c2 -2 0 -3 -6 -3 -6 0
-21 9 -34 21 l-24 20 30 -17 c17 -10 32 -19 34 -21z m-169 7 c8 -5 11 -10 5
-10 -5 0 -17 5 -25 10 -8 5 -10 10 -5 10 6 0 17 -5 25 -10z m-40 -10 c18 -12
2 -12 -25 0 -13 6 -15 9 -5 9 8 0 22 -4 30 -9z m266 -22 c50 -100 159 -201
289 -270 80 -43 73 -45 -62 -19 -111 22 -204 51 -275 87 l-50 25 3 87 3 87 36
17 c19 9 36 17 37 17 1 1 10 -14 19 -31z m942 -89 l4 -88 -49 -24 c-64 -33
-190 -72 -292 -91 -117 -22 -124 -20 -56 17 128 69 233 163 289 259 l27 46 37
-16 37 -16 3 -87z m112 106 c-14 -8 -29 -14 -35 -14 -5 0 1 6 15 14 14 8 30
14 35 14 6 0 -1 -6 -15 -14z m-1210 -15 c19 -11 31 -19 25 -19 -5 0 -26 8 -45
19 -19 11 -30 19 -25 19 6 0 26 -8 45 -19z m-60 0 c8 -5 11 -10 5 -10 -5 0
-17 5 -25 10 -8 5 -10 10 -5 10 6 0 17 -5 25 -10z m1215 -10 c-3 -5 -11 -10
-16 -10 -6 0 -7 5 -4 10 3 6 11 10 16 10 6 0 7 -4 4 -10z m-1275 -15 c14 -8
21 -14 15 -14 -5 0 -21 6 -35 14 -14 8 -20 14 -15 14 6 0 21 -6 35 -14z m1420
0 c-14 -8 -29 -14 -35 -14 -5 0 1 6 15 14 14 8 30 14 35 14 6 0 -1 -6 -15 -14z
m-1516 -24 c4 -5 -4 -7 -16 -3 -13 3 -19 1 -15 -5 5 -7 0 -9 -13 -6 -35 9 -22
-4 35 -36 30 -17 55 -33 55 -36 0 -7 -148 69 -149 77 -2 15 94 24 103 9z m252
-13 c-3 -13 -6 -40 -6 -60 0 -30 -3 -36 -16 -31 -8 3 -13 12 -9 20 4 12 0 14
-15 10 -11 -3 -18 -1 -14 4 3 5 13 9 22 10 11 1 8 4 -8 9 -24 8 -24 8 -2 9 34
2 24 34 -13 44 -11 2 0 5 24 6 40 1 43 -1 37 -21z m1149 15 c-38 -10 -47 -42
-12 -44 21 -2 21 -2 -2 -6 -19 -4 -21 -7 -10 -14 9 -6 10 -9 2 -9 -7 0 -10 -6
-7 -14 3 -7 -2 -16 -10 -19 -12 -5 -16 0 -16 16 0 12 -3 39 -6 60 l-7 37 44
-1 c24 -1 35 -4 24 -6z m293 -8 c6 -6 13 -2 -75 -47 -86 -44 -97 -42 -18 3 57
32 70 45 35 36 -13 -3 -18 -1 -13 6 4 6 -2 8 -15 5 -14 -4 -20 -2 -16 4 6 10
91 4 102 -7z m-1528 1 c0 -2 -9 -6 -20 -9 -11 -3 -20 -1 -20 4 0 5 9 9 20 9
11 0 20 -2 20 -4z m1300 -5 c0 -5 -9 -7 -20 -4 -11 3 -20 7 -20 9 0 2 9 4 20
4 11 0 20 -4 20 -9z m-1410 -27 c0 -2 -9 0 -20 6 -11 6 -20 13 -20 16 0 2 9 0
20 -6 11 -6 20 -13 20 -16z m184 -103 c315 -180 696 -197 1021 -47 80 37 187
107 222 144 l22 24 5 -24 c3 -12 10 -52 15 -88 5 -36 12 -73 16 -82 13 -32
-145 -125 -304 -179 -287 -98 -590 -98 -879 -2 -92 30 -234 102 -280 140 -30
25 -33 31 -23 56 6 16 11 48 11 71 0 24 5 56 10 73 l11 29 39 -36 c21 -19 73
-55 114 -79z m-47 113 c-3 -3 -12 -4 -19 -1 -8 3 -5 6 6 6 11 1 17 -2 13 -5z
m1230 0 c-3 -3 -12 -4 -19 -1 -8 3 -5 6 6 6 11 1 17 -2 13 -5z m-1377 -30 c0
-2 -9 0 -20 6 -11 6 -20 13 -20 16 0 2 9 0 20 -6 11 -6 20 -13 20 -16z"/>
<path d="M1427 2062 c-19 -20 -23 -107 -8 -131 8 -12 12 -12 25 -2 12 10 16
32 16 82 0 72 -6 81 -33 51z"/>
<path d="M1355 2007 c-15 -11 -17 -23 -13 -66 6 -61 12 -69 35 -48 14 12 17
28 15 71 -4 60 -8 64 -37 43z"/>
<path d="M1296 1951 c-15 -16 -17 -29 -12 -66 8 -47 14 -53 34 -33 13 13 15
72 3 101 -6 17 -8 17 -25 -2z"/>
<path d="M1538 2018 c-3 -50 -1 -67 14 -82 23 -26 28 -19 35 48 5 46 2 60 -12
76 -10 11 -22 20 -26 20 -4 0 -9 -28 -11 -62z"/>
<path d="M1607 1963 c-5 -47 -3 -60 10 -70 27 -21 31 -16 38 43 6 47 5 57 -11
69 -11 8 -22 15 -25 15 -3 0 -9 -26 -12 -57z"/>
<path d="M1676 1954 c-12 -41 -10 -95 4 -104 24 -16 27 -12 35 36 5 39 3 50
-13 67 -19 19 -20 19 -26 1z"/>
<path d="M690 1736 c0 -2 8 -10 18 -17 15 -13 16 -12 3 4 -13 16 -21 21 -21
13z"/>
<path d="M535 1710 c-4 -6 5 -10 21 -10 15 0 64 -20 110 -45 86 -47 104 -54
85 -32 -6 8 -7 18 -3 22 4 5 1 5 -5 1 -7 -4 -42 11 -80 34 -65 39 -115 51
-128 30z"/>
<path d="M693 1425 c0 -8 4 -12 9 -9 5 3 6 10 3 15 -9 13 -12 11 -12 -6z"/>
<path d="M839 1343 l-24 -28 28 24 c25 23 32 31 24 31 -2 0 -14 -12 -28 -27z"/>
<path d="M2390 1713 c-8 -4 -32 -17 -53 -30 -21 -13 -42 -21 -48 -18 -5 4 -8
1 -7 -7 2 -7 -5 -12 -14 -12 -10 1 -16 -2 -13 -6 3 -5 -1 -10 -7 -13 -7 -2
-10 -8 -6 -12 4 -4 39 11 79 35 39 23 89 45 110 47 21 3 36 9 33 14 -6 10 -50
11 -74 2z"/>
<path d="M2323 1415 c0 -8 4 -12 9 -9 5 3 6 10 3 15 -9 13 -12 11 -12 -6z"/>
<path d="M2140 1356 c0 -2 8 -10 18 -17 15 -13 16 -12 3 4 -13 16 -21 21 -21
13z"/>
<path d="M1330 1037 c-14 -7 -26 -22 -28 -33 -3 -18 1 -20 30 -17 l33 4 -25
-15 -25 -14 28 -7 c20 -5 25 -11 17 -20 -13 -15 -3 -25 18 -18 14 5 15 3 5 -8
-17 -17 -16 -29 0 -29 7 0 13 -9 14 -20 3 -41 -40 -6 -52 43 -9 36 -56 74
-108 87 -23 6 -71 19 -107 30 -35 10 -67 17 -70 14 -3 -3 12 -21 32 -40 21
-19 37 -34 35 -34 -1 0 -17 4 -35 9 -17 5 -32 6 -32 1 0 -13 51 -50 69 -50 13
-1 13 -2 -2 -11 -10 -6 -27 -9 -38 -6 -10 3 -19 1 -19 -3 0 -13 42 -40 65 -41
12 -1 4 -6 -19 -13 -45 -14 -38 -23 26 -35 l43 -8 -47 -8 c-27 -4 -48 -11 -48
-16 0 -12 65 -22 95 -15 36 9 31 0 -12 -23 l-38 -20 37 -1 c20 0 48 4 62 10
31 12 33 1 5 -34 -28 -35 -2 -36 40 0 28 23 31 24 31 7 0 -31 11 -34 31 -10
16 19 18 20 19 5 0 -23 16 -23 24 -1 6 15 8 15 17 3 8 -13 10 -13 19 0 9 13
10 13 10 0 0 -9 -12 -21 -27 -28 -56 -26 -93 -47 -93 -54 0 -3 12 -10 28 -16
l27 -9 -39 -13 c-38 -12 -40 -12 -63 16 -22 28 -23 28 -50 12 -37 -22 -40 -37
-7 -35 15 1 29 -4 32 -11 3 -10 -3 -13 -21 -10 -43 5 -89 -52 -52 -66 8 -3 15
0 15 7 0 7 8 13 18 13 9 1 26 5 37 10 20 8 20 8 2 -20 -14 -21 -16 -30 -6 -42
13 -16 59 -19 59 -4 0 6 -4 10 -10 10 -16 0 -12 30 5 36 21 8 51 -16 33 -27
-7 -4 -10 -10 -7 -14 9 -9 60 35 53 46 -3 6 -18 15 -32 20 -25 10 -26 11 -8
21 14 8 21 7 27 -3 7 -11 11 -10 23 6 9 11 16 14 16 8 0 -19 20 -16 20 3 0 10
6 14 15 10 8 -3 15 -1 15 4 0 6 5 10 10 10 24 0 1 -37 -38 -60 -14 -8 -15 -11
-3 -19 11 -7 9 -12 -11 -25 -13 -8 -39 -21 -57 -27 -38 -13 -30 -27 21 -38
l33 -8 -38 -23 c-48 -29 -37 -49 18 -33 34 11 35 10 29 -12 -9 -36 3 -48 29
-30 28 20 37 19 37 -2 0 -10 7 -26 14 -36 13 -17 15 -17 30 5 9 12 16 31 16
41 0 17 2 17 27 -3 30 -23 46 -12 37 27 -6 21 -4 22 25 12 17 -6 39 -8 48 -5
13 5 9 12 -23 33 l-39 27 33 7 c55 11 57 24 8 43 -44 17 -80 46 -57 46 19 0
12 18 -9 25 -22 7 -46 43 -35 53 3 4 10 0 15 -8 7 -11 10 -12 10 -2 0 7 5 10
11 7 6 -4 8 -13 5 -21 -3 -8 1 -14 9 -14 8 0 15 6 15 13 0 6 7 3 16 -8 13 -17
16 -18 24 -5 7 11 12 12 21 3 8 -8 5 -14 -12 -23 -32 -17 -30 -15 -23 -34 3
-9 15 -21 26 -27 16 -8 19 -7 16 7 -4 24 30 44 42 24 14 -22 12 -30 -6 -30 -8
0 -12 -4 -9 -10 8 -14 48 -13 62 1 9 9 8 19 -4 42 -14 28 -14 29 3 22 11 -4
27 -7 37 -7 9 0 17 -6 17 -16 0 -15 1 -15 17 1 16 16 16 18 -5 40 -17 18 -30
22 -55 19 -29 -5 -31 -4 -18 12 10 11 22 15 37 12 31 -8 22 16 -13 35 -23 13
-27 12 -48 -15 -22 -27 -24 -28 -61 -16 -34 12 -36 14 -17 21 25 9 39 29 21
29 -8 0 -29 11 -48 25 -19 14 -42 25 -52 25 -12 0 -15 5 -11 16 5 13 7 13 14
2 8 -11 10 -11 18 0 6 11 10 10 15 -5 7 -17 8 -17 21 0 13 18 14 18 25 -2 13
-25 30 -19 30 11 0 21 1 21 28 -5 42 -40 69 -35 37 7 -21 27 -19 39 4 26 11
-5 37 -10 58 -10 40 1 39 4 -14 37 -15 9 -11 10 23 6 24 -3 51 0 65 8 23 12
22 13 -26 25 -35 8 -42 12 -23 13 15 0 39 6 55 12 l28 12 -45 10 -45 10 35 9
c37 10 60 25 60 38 0 5 -9 6 -19 3 -11 -3 -28 0 -38 6 -14 8 -14 10 -3 11 8 0
29 12 45 26 l30 25 -36 -5 -37 -4 36 33 c21 18 34 36 31 40 -4 3 -35 -3 -70
-14 -35 -10 -83 -24 -106 -30 -54 -15 -90 -45 -117 -101 -23 -48 -46 -64 -43
-31 1 12 8 21 16 21 12 0 12 3 3 12 -17 17 -15 31 4 24 11 -4 14 -1 9 13 -4
14 1 20 22 26 l28 8 -30 14 -30 14 38 -4 c33 -3 38 -1 35 17 -5 34 -51 49
-124 41 -35 -4 -64 -11 -64 -16 0 -5 5 -9 11 -9 8 0 8 -4 -1 -15 -6 -8 -9 -18
-7 -23 3 -4 1 -14 -4 -22 -8 -13 -10 -13 -18 -1 -5 8 -7 20 -4 27 2 6 -1 15
-7 19 -8 5 -8 11 0 20 8 9 0 14 -36 19 -66 9 -85 7 -114 -7z m180 -235 c0 -13
2 -13 15 4 13 18 14 18 8 -6 -6 -23 -5 -24 12 -10 17 14 18 13 12 -3 -4 -10
-7 -24 -7 -30 0 -8 -4 -7 -12 1 -15 15 -65 16 -74 1 -8 -13 -24 8 -23 31 0 10
2 11 6 3 9 -23 25 -14 18 10 -7 22 -7 22 9 2 15 -20 15 -20 16 3 0 13 4 20 10
17 6 -3 10 -14 10 -23z m-26 -91 c-2 -3 -12 3 -22 13 -16 17 -16 18 5 5 12 -7
20 -15 17 -18z"/>
<path d="M2140 363 c0 -5 18 -28 40 -53 47 -54 54 -35 8 20 -31 38 -48 49 -48
33z"/>
<path d="M849 347 c-59 -47 -71 -58 -66 -64 4 -3 13 -1 20 5 19 16 28 4 21
-24 -11 -44 12 -24 34 29 29 70 28 82 -9 54z m-7 -39 c-7 -7 -12 -8 -12 -2 0
14 12 26 19 19 2 -3 -1 -11 -7 -17z"/>
<path d="M2124 329 c4 -13 10 -33 13 -44 5 -14 -2 -10 -21 13 -15 17 -32 29
-38 26 -5 -4 9 -26 33 -50 24 -24 47 -40 51 -36 10 10 -19 99 -35 109 -7 4 -8
-2 -3 -18z"/>
<path d="M871 285 c-22 -42 -23 -47 -8 -62 21 -22 41 -11 72 36 27 43 29 51
18 51 -5 0 -18 -18 -31 -40 -12 -22 -29 -40 -37 -40 -20 0 -19 8 10 58 14 26
19 42 12 42 -7 0 -23 -20 -36 -45z"/>
<path d="M2031 296 c-9 -11 -7 -24 11 -60 24 -50 34 -54 64 -30 18 15 18 15
-5 8 -32 -8 -45 14 -23 40 16 18 16 18 -5 12 -22 -7 -47 14 -25 22 14 4 16 22
3 22 -5 0 -14 -6 -20 -14z"/>
<path d="M960 275 c-10 -12 -10 -21 -1 -42 15 -32 0 -53 -24 -33 -8 7 -15 8
-15 2 0 -16 26 -33 43 -26 21 8 29 32 17 54 -19 36 -5 52 29 31 11 -7 9 -17
-7 -55 -13 -28 -17 -48 -11 -52 6 -3 13 3 16 14 3 13 15 22 31 24 14 2 30 11
36 21 9 15 7 22 -13 38 -12 10 -27 17 -31 14 -4 -3 -13 2 -20 10 -16 19 -34
19 -50 0z m87 -62 c-17 -18 -22 -8 -11 22 5 12 10 13 17 6 8 -8 6 -16 -6 -28z"/>
<path d="M1975 270 c-8 -13 5 -109 16 -116 5 -3 9 4 9 15 0 28 19 36 35 15 7
-11 16 -16 20 -12 6 5 -61 108 -70 108 -2 0 -7 -4 -10 -10z m35 -51 c0 -5 -4
-9 -10 -9 -5 0 -10 7 -10 16 0 8 5 12 10 9 6 -3 10 -10 10 -16z"/>
<path d="M1892 238 c-20 -20 -14 -48 12 -58 35 -13 41 -29 15 -38 -13 -5 -18
-11 -12 -15 16 -10 40 1 48 21 6 16 -6 30 -51 59 -18 12 -18 12 3 19 13 3 20
10 17 15 -7 12 -18 11 -32 -3z"/>
<path d="M1081 199 c-7 -23 -15 -47 -18 -55 -3 -8 -1 -14 5 -14 9 0 42 75 42
98 0 27 -18 9 -29 -29z"/>
<path d="M1130 210 c-29 -29 -36 -67 -15 -90 19 -21 45 -27 45 -11 0 5 -10 11
-21 14 -18 5 -20 11 -14 34 9 39 25 54 46 48 25 -8 24 2 -1 15 -15 8 -24 6
-40 -10z"/>
<path d="M1840 223 c0 -19 35 -113 42 -113 11 0 10 4 -8 66 -8 30 -20 54 -25
54 -5 0 -9 -3 -9 -7z"/>
<path d="M1788 213 c-21 -5 -21 -2 -7 -61 13 -52 35 -85 27 -39 -6 33 -2 34
22 4 10 -12 22 -19 26 -15 4 5 0 16 -9 25 -9 11 -13 28 -10 45 5 29 -17 48
-49 41z m29 -28 c8 -22 -6 -33 -17 -15 -13 20 -12 30 0 30 6 0 13 -7 17 -15z"/>
<path d="M1190 168 c-6 -24 -13 -51 -16 -60 -3 -10 -1 -18 5 -18 6 0 15 19 21
43 6 23 13 50 16 60 3 9 1 17 -5 17 -6 0 -15 -19 -21 -42z"/>
<path d="M1227 183 c-21 -76 -15 -103 24 -103 13 0 22 14 34 52 18 61 18 58 5
58 -5 0 -13 -18 -16 -40 -4 -22 -12 -44 -19 -50 -21 -17 -27 5 -16 47 13 47
13 53 2 53 -5 0 -12 -8 -14 -17z"/>
<path d="M1706 184 c-19 -18 -20 -44 -5 -78 16 -35 40 -41 61 -16 20 25 16 63
-10 93 -19 21 -26 21 -46 1z m44 -40 c9 -27 9 -39 0 -47 -16 -16 -40 17 -40
55 0 40 26 35 40 -8z"/>
<path d="M1307 176 c-3 -7 -9 -35 -13 -61 -5 -35 -4 -46 5 -41 6 4 12 22 12
39 1 20 3 24 6 12 10 -48 14 -51 29 -22 19 36 24 34 17 -8 -3 -20 -1 -35 4
-35 10 0 23 54 23 98 0 30 -16 28 -33 -5 l-15 -27 -7 32 c-7 34 -19 41 -28 18z"/>
<path d="M1547 173 c-15 -4 -17 -14 -15 -61 3 -54 5 -57 31 -60 15 -2 27 1 27
7 0 6 -9 11 -20 11 -13 0 -20 7 -20 20 0 11 7 20 15 20 8 0 15 5 15 11 0 6 -7
9 -15 5 -10 -4 -15 1 -15 14 0 11 7 20 15 20 8 0 15 5 15 10 0 10 -3 11 -33 3z"/>
<path d="M1597 174 c-2 -5 -2 -33 0 -61 5 -50 7 -53 34 -53 16 0 29 5 29 11 0
6 -9 9 -20 6 -18 -5 -20 0 -20 36 0 42 -13 76 -23 61z"/>
<path d="M1661 129 c8 -51 15 -67 24 -58 10 10 -8 109 -20 109 -9 0 -10 -13
-4 -51z"/>
<path d="M1430 156 c0 -7 -3 -34 -6 -60 -5 -31 -3 -46 5 -46 6 0 11 18 12 43
l1 42 13 -35 13 -35 16 35 16 35 -2 -40 c-2 -23 1 -39 7 -38 6 2 11 28 13 58
2 43 0 55 -12 55 -8 0 -19 -12 -24 -27 l-10 -28 -7 28 c-7 27 -35 38 -35 13z"/>
</g>
</svg>
